<?xml version="1.0" encoding="UTF-8" standalone="no"?>
<!-- Created with Inkscape (http://www.inkscape.org/) -->

<svg
   version="1.1"
   id="svg1"
   width="1270"
   height="1270"
   viewBox="0 0 1270 1270"
   xmlns="http://www.w3.org/2000/svg"
   xmlns:svg="http://www.w3.org/2000/svg">
  <defs
     id="defs1" />
  <g
     id="g1">
    <g
       id="g2"
       transform="translate(-770.4381,-134.09524)">
      <path
         style="fill:#6af8b7"
         d="m 1371.25,1401.2837 c 1.5125,-0.2291 3.9875,-0.2291 5.5,0 1.5125,0.2292 0.275,0.4166 -2.75,0.4166 -3.025,0 -4.2625,-0.1874 -2.75,-0.4166 z m 72.0137,0 c 1.5201,-0.2298 3.7701,-0.2237 5,0.014 1.23,0.2373 -0.014,0.4254 -2.7637,0.4179 -2.75,-0.01 -3.7563,-0.2017 -2.2363,-0.4316 z m -88.502,-0.9897 c 1.2439,-0.2392 3.0439,-0.2301 4,0.02 0.956,0.2503 -0.062,0.446 -2.2617,0.4349 -2.2,-0.011 -2.9823,-0.2159 -1.7383,-0.4551 z m 104.4883,0.018 c 0.9625,-0.2516 2.5375,-0.2516 3.5,0 0.9625,0.2515 0.175,0.4573 -1.75,0.4573 -1.925,0 -2.7125,-0.2058 -1.75,-0.4573 z m -115.5,-0.973 c 0.6875,-0.2774 1.8125,-0.2774 2.5,0 0.6875,0.2774 0.125,0.5044 -1.25,0.5044 -1.375,0 -1.9375,-0.227 -1.25,-0.5044 z m 127.5,-0.027 c 0.9625,-0.2516 2.5375,-0.2516 3.5,0 0.9625,0.2515 0.175,0.4573 -1.75,0.4573 -1.925,0 -2.7125,-0.2058 -1.75,-0.4573 z m -136.5,-0.973 c 0.6875,-0.2774 1.8125,-0.2774 2.5,0 0.6875,0.2774 0.125,0.5044 -1.25,0.5044 -1.375,0 -1.9375,-0.227 -1.25,-0.5044 z m 147.519,-0.031 c 0.973,-0.2535 2.323,-0.2369 3,0.037 0.6771,0.2739 -0.119,0.4813 -1.769,0.461 -1.65,-0.02 -2.2039,-0.2445 -1.231,-0.4981 z m -155.4565,-0.9901 c 0.7219,-0.2889 1.5844,-0.2534 1.9167,0.079 0.3323,0.3323 -0.2584,0.5687 -1.3125,0.5253 -1.165,-0.048 -1.4019,-0.285 -0.6042,-0.6042 z m 164,0 c 0.7219,-0.2889 1.5844,-0.2534 1.9167,0.079 0.3323,0.3323 -0.2584,0.5687 -1.3125,0.5253 -1.165,-0.048 -1.4019,-0.285 -0.6042,-0.6042 z m -172,-1 c 0.7219,-0.2889 1.5844,-0.2534 1.9167,0.079 0.3323,0.3323 -0.2584,0.5687 -1.3125,0.5253 -1.165,-0.048 -1.4019,-0.285 -0.6042,-0.6042 z m 179,0 c 0.7219,-0.2889 1.5844,-0.2534 1.9167,0.079 0.3323,0.3323 -0.2584,0.5687 -1.3125,0.5253 -1.165,-0.048 -1.4019,-0.285 -0.6042,-0.6042 z m -185,-1 c 0.7219,-0.2889 1.5844,-0.2534 1.9167,0.079 0.3323,0.3323 -0.2584,0.5687 -1.3125,0.5253 -1.165,-0.048 -1.4019,-0.285 -0.6042,-0.6042 z m 192,0 c 0.7219,-0.2889 1.5844,-0.2534 1.9167,0.079 0.3323,0.3323 -0.2584,0.5687 -1.3125,0.5253 -1.165,-0.048 -1.4019,-0.285 -0.6042,-0.6042 z m 6,-1 c 0.7219,-0.2889 1.5844,-0.2534 1.9167,0.079 0.3323,0.3323 -0.2584,0.5687 -1.3125,0.5253 -1.165,-0.048 -1.4019,-0.285 -0.6042,-0.6042 z m -210,-1 c 0.7219,-0.2889 1.5844,-0.2534 1.9167,0.079 0.3323,0.3323 -0.2584,0.5687 -1.3125,0.5253 -1.165,-0.048 -1.4019,-0.285 -0.6042,-0.6042 z m -11,-2 c 0.7219,-0.2889 1.5844,-0.2534 1.9167,0.079 0.3323,0.3323 -0.2584,0.5687 -1.3125,0.5253 -1.165,-0.048 -1.4019,-0.285 -0.6042,-0.6042 z m 236,0 c 0.7219,-0.2889 1.5844,-0.2534 1.9167,0.079 0.3323,0.3323 -0.2584,0.5687 -1.3125,0.5253 -1.165,-0.048 -1.4019,-0.285 -0.6042,-0.6042 z m 10,-2 c 0.7219,-0.2889 1.5844,-0.2534 1.9167,0.079 0.3323,0.3323 -0.2584,0.5687 -1.3125,0.5253 -1.165,-0.048 -1.4019,-0.285 -0.6042,-0.6042 z M 1371,1265.9911 c -73.756,-5.5042 -148.3974,-28.9564 -212.5,-66.767 C 1068.6193,1146.2083 998.70116,1069.9656 954.72891,977.02062 928.78505,922.18257 913.94155,867.07423 907.85624,803 c -1.42169,-14.96944 -1.76248,-52.91344 -0.61675,-68.66933 4.15244,-57.10348 16.35694,-110.57496 36.30664,-159.06997 25.52227,-62.04118 60.61797,-115.43724 106.24977,-161.65289 42.6352,-43.18064 85.427,-74.06213 139.6156,-100.75626 22.7943,-11.22877 51.9486,-22.69611 74.0885,-29.14138 33.5875,-9.77786 64.3844,-15.83231 96,-18.87295 20.4376,-1.96558 82.1143,-1.6439 103,0.53721 92.4001,9.64941 185.7651,48.37547 259.8668,107.78786 43.6689,35.01232 85.776,83.12865 114.2365,130.53952 42.749,71.21327 64.9604,142.16511 72.4078,231.29819 2.0449,24.474 0.4601,66.97176 -3.5427,95 -2.1258,14.8856 -8.8236,48.32198 -12.6197,63 -6.6983,25.89979 -20.2053,61.63133 -33.8321,89.5 -28.3525,57.9847 -67.1286,109.5996 -115.7764,154.1103 -77.1581,70.5963 -179.2213,117.1115 -280.7402,127.9471 -17.4743,1.8652 -73.8766,2.7489 -91.5,1.4337 z m 77,-13.0517 c 76.7647,-6.7039 153.035,-32.642 218,-74.1375 33.4143,-21.3429 54.149,-37.7936 81.1311,-64.3683 43.3682,-42.7132 73.0038,-83.4788 98.8208,-135.9336 17.43,-35.41425 29.4399,-68.75838 37.4585,-104 10.6964,-47.00986 13.965,-80.51592 12.4049,-127.15974 -1.0733,-32.091 -3.1806,-49.09471 -10.3283,-83.34026 -5.3799,-25.77561 -7.0474,-31.95906 -15.0796,-55.91992 -18.5206,-55.24849 -43.8773,-102.00425 -80.2643,-148.00107 -53.9862,-68.24398 -126.4907,-120.96487 -210.0412,-152.7294 -19.9618,-7.58914 -32.768,-11.52941 -57.6019,-17.72327 -67.4022,-16.81087 -144.7257,-18.09367 -213.5,-3.54197 -32.5636,6.89002 -67.5777,17.90596 -94.6849,29.78928 -65.9247,28.90021 -125.4146,72.07211 -172.4212,125.12635 -27.0205,30.49686 -53.66108,70.15013 -70.54292,105 -27.02044,55.77944 -41.14008,104.20332 -48.98613,168 -2.15669,17.53617 -2.49872,77.48442 -0.54772,96 4.38719,41.63575 16.4589,92.56395 30.22182,127.5 18.27631,46.39293 37.45974,80.7456 67.15605,120.2595 16.5507,22.0224 24.282,30.8327 46.7485,53.2732 31.9824,31.9453 55.1056,50.0735 93.0823,72.9747 50.2474,30.3008 102.36,50.212 161.9742,61.8869 24.13,4.7257 41.8476,6.8687 70,8.4669 9.8002,0.5564 44.1636,-0.3008 57,-1.4218 z m -91,-238.5334 c -20.3736,-2.4167 -34.739,-6.0713 -52.4289,-13.3382 -12.0579,-4.95338 -18.4462,-8.48896 -29.5711,-16.36596 -29.5309,-20.90941 -49.5397,-48.68714 -61.6395,-85.5725 C 1209.7712,888.18767 1205,866.1398 1205,860.49532 v -3.34314 l 57.0009,0.003 57.0009,0.003 0.5864,2.67055 c 3.2447,14.77707 9.3148,26.91014 18.147,36.27272 7.0934,7.51935 16.4152,12.99302 27.7422,16.28994 6.7687,1.97014 9.7341,2.05068 82.0226,2.22763 41.25,0.10098 78.0295,0.47931 81.7323,0.84074 8.5059,0.83026 19.438,3.83937 26.1063,7.18592 23.9735,12.03118 43.8267,34.1293 52.0627,57.94951 2.8888,8.35508 7.1925,31.41421 6.2982,33.74491 -0.5964,1.554 -9.4262,1.6655 -122.921,1.5518 -96.3662,-0.097 -124.7155,-0.4116 -133.7785,-1.4866 z M 1202.2409,768.77649 1202.5,717.5 l 163.7727,-0.11776 c 90.075,-0.0648 164.0107,0.26727 164.3015,0.73787 1.0764,1.74162 -1.7936,21.47148 -4.2613,29.29447 -5.4273,17.20542 -14.1211,31.57987 -26.7198,44.17853 -12.9828,12.9828 -24.2899,19.5783 -44.0497,25.69451 l -7.0434,2.18011 -123.2591,0.29262 -123.2591,0.29262 z m 4.319,-89.67951 c -1.1034,-1.78532 1.5995,-21.5829 4.5018,-32.97352 7.7928,-30.58507 21.0192,-54.24432 42.1968,-75.48125 28.4911,-28.57095 67.1479,-45.64899 112.413,-49.66245 7.6703,-0.68009 53.3099,-0.94876 129.8285,-0.76427 l 118,0.28451 0.3268,2.85773 c 0.5498,4.80756 -2.8496,25.70089 -5.4737,33.64227 -4.5427,13.74762 -13.0133,26.48056 -26.0176,39.1092 -12.0344,11.68687 -24.1859,18.71859 -39.8355,23.05179 -7.8734,2.18005 -9.2981,2.22401 -90,2.7773 l -82,0.56219 -6.5,2.32574 c -22.7977,8.15718 -39.2472,26.70233 -43.0489,48.53332 L 1319.7947,680 h -56.3383 c -32.4465,0 -56.575,-0.38295 -56.8965,-0.90302 z M 1803,1263.6224 c 0,-0.2076 0.7875,-0.9951 1.75,-1.75 1.5861,-1.2438 1.6214,-1.2085 0.3776,0.3776 -1.3064,1.6657 -2.1276,2.1955 -2.1276,1.3724 z M 1815.5,1253 c 0.9955,-1.1 2.035,-2 2.31,-2 0.275,0 -0.3145,0.9 -1.31,2 -0.9955,1.1 -2.035,2 -2.31,2 -0.275,0 0.3145,-0.9 1.31,-2 z m -820.09501,-4.25 -1.90499,-2.25 2.25,1.905 c 1.2375,1.0477 2.25,2.0602 2.25,2.25 0,0.8002 -0.80479,0.2094 -2.59501,-1.905 z M 1823,1246.6224 c 0,-0.2076 0.7875,-0.9951 1.75,-1.75 1.5861,-1.2438 1.6214,-1.2085 0.3776,0.3776 -1.3064,1.6657 -2.1276,2.1955 -2.1276,1.3724 z M 987.87244,1242.25 c -1.24387,-1.5861 -1.2085,-1.6214 0.37756,-0.3776 0.9625,0.7549 1.75,1.5424 1.75,1.75 0,0.8231 -0.82119,0.2933 -2.12756,-1.3724 z M 1831,1239.5 c 1.2917,-1.375 2.5736,-2.5 2.8486,-2.5 0.275,0 -0.5569,1.125 -1.8486,2.5 -1.2917,1.375 -2.5736,2.5 -2.8486,2.5 -0.275,0 0.5569,-1.125 1.8486,-2.5 z m -853.54705,-6.75 -3.95295,-4.25 4.25,3.9529 c 3.95246,3.6762 4.70953,4.5471 3.95295,4.5471 -0.16338,0 -2.07588,-1.9125 -4.25,-4.25 z M 1856.5,1215 c 7.1341,-7.15 13.1961,-13 13.4711,-13 0.275,0 -5.337,5.85 -12.4711,13 -7.1341,7.15 -13.1961,13 -13.4711,13 -0.275,0 5.337,-5.85 12.4711,-13 z m -901.06291,-3.25 -2.93709,-3.25 3.25,2.9371 c 3.02946,2.7378 3.70965,3.5629 2.93709,3.5629 -0.1721,0 -1.6346,-1.4625 -3.25,-3.25 z m -14.51278,-15.5 -2.42431,-2.75 2.75,2.4243 c 1.5125,1.3334 2.75,2.5709 2.75,2.75 0,0.7843 -0.8098,0.146 -3.07569,-2.4243 z M 1881,1189.5 c 1.2917,-1.375 2.5736,-2.5 2.8486,-2.5 0.275,0 -0.5569,1.125 -1.8486,2.5 -1.2917,1.375 -2.5736,2.5 -2.8486,2.5 -0.275,0 0.5569,-1.125 1.8486,-2.5 z m -950.59501,-4.75 -1.90499,-2.25 2.25,1.905 c 1.2375,1.0477 2.25,2.0602 2.25,2.25 0,0.8002 -0.80479,0.2094 -2.59501,-1.905 z M 1886,1183.6871 c 0,-0.1721 1.4625,-1.6346 3.25,-3.25 l 3.25,-2.9371 -2.9371,3.25 c -2.7378,3.0295 -3.5629,3.7097 -3.5629,2.9371 z M 921.87244,1175.25 c -1.24387,-1.5861 -1.2085,-1.6214 0.37756,-0.3776 1.66575,1.3064 2.19548,2.1276 1.37244,2.1276 -0.20765,0 -0.99515,-0.7875 -1.75,-1.75 z M 1921,1140.6224 c 0,-0.2076 0.7875,-0.9951 1.75,-1.75 1.5861,-1.2438 1.6214,-1.2085 0.3776,0.3776 -1.3064,1.6657 -2.1276,2.1955 -2.1276,1.3724 z m 109.0789,-251.20573 c 0.048,-1.16495 0.285,-1.4019 0.6042,-0.60417 0.2889,0.72187 0.2534,1.58438 -0.079,1.91667 -0.3323,0.33229 -0.5687,-0.25834 -0.5253,-1.3125 z m 1,-5 c 0.048,-1.16495 0.285,-1.4019 0.6042,-0.60417 0.2889,0.72187 0.2534,1.58438 -0.079,1.91667 -0.3323,0.33229 -0.5687,-0.25834 -0.5253,-1.3125 z m 2,-11 c 0.048,-1.16495 0.285,-1.4019 0.6042,-0.60417 0.2889,0.72187 0.2534,1.58438 -0.079,1.91667 -0.3323,0.33229 -0.5687,-0.25834 -0.5253,-1.3125 z m -1251.99995,-8 c 0.048,-1.16495 0.28494,-1.4019 0.60416,-0.60417 0.28887,0.72187 0.25335,1.58438 -0.0789,1.91667 -0.33229,0.33229 -0.56864,-0.25834 -0.52522,-1.3125 z m -1,-6 c 0.048,-1.16495 0.28494,-1.4019 0.60416,-0.60417 0.28887,0.72187 0.25335,1.58438 -0.0789,1.91667 -0.33229,0.33229 -0.56864,-0.25834 -0.52522,-1.3125 z M 2036.1579,855 c 0,-1.375 0.227,-1.9375 0.5044,-1.25 0.2774,0.6875 0.2774,1.8125 0,2.5 -0.2774,0.6875 -0.5044,0.125 -0.5044,-1.25 z M 779.07895,852.41667 c 0.048,-1.16495 0.28494,-1.4019 0.60416,-0.60417 0.28887,0.72187 0.25335,1.58438 -0.0789,1.91667 -0.33229,0.33229 -0.56864,-0.25834 -0.52522,-1.3125 z m 1257.99995,-5 c 0.048,-1.16495 0.285,-1.4019 0.6042,-0.60417 0.2889,0.72187 0.2534,1.58438 -0.079,1.91667 -0.3323,0.33229 -0.5687,-0.25834 -0.5253,-1.3125 z m -1258.99995,-4 c 0.048,-1.16495 0.28494,-1.4019 0.60416,-0.60417 0.28887,0.72187 0.25335,1.58438 -0.0789,1.91667 -0.33229,0.33229 -0.56864,-0.25834 -0.52522,-1.3125 z M 2038.1579,839 c 0,-1.375 0.227,-1.9375 0.5044,-1.25 0.2774,0.6875 0.2774,1.8125 0,2.5 -0.2774,0.6875 -0.5044,0.125 -0.5044,-1.25 z M 777.07895,835.41667 c 0.048,-1.16495 0.28494,-1.4019 0.60416,-0.60417 0.28887,0.72187 0.25335,1.58438 -0.0789,1.91667 -0.33229,0.33229 -0.56864,-0.25834 -0.52522,-1.3125 z M 2039.232,828 c 0,-1.925 0.2058,-2.7125 0.4573,-1.75 0.2516,0.9625 0.2516,2.5375 0,3.5 -0.2515,0.9625 -0.4573,0.175 -0.4573,-1.75 z m -1263,-3 c 0,-1.925 0.2058,-2.7125 0.45733,-1.75 0.25152,0.9625 0.25152,2.5375 0,3.5 -0.25153,0.9625 -0.45733,0.175 -0.45733,-1.75 z m 1264.0202,-9.5 c 0.011,-2.2 0.2159,-2.98225 0.4551,-1.73834 0.2392,1.24391 0.2301,3.04391 -0.02,4 -0.2503,0.95609 -0.446,-0.0617 -0.4349,-2.26166 z m -1265.00002,-6 c 0.0111,-2.2 0.21589,-2.98225 0.45508,-1.73834 0.23919,1.24391 0.23011,3.04391 -0.0202,4 -0.25029,0.95609 -0.446,-0.0617 -0.4349,-2.26166 z M 2041.2997,799 c 0,-3.025 0.1874,-4.2625 0.4166,-2.75 0.2291,1.5125 0.2291,3.9875 0,5.5 -0.2292,1.5125 -0.4166,0.275 -0.4166,-2.75 z M 774.32007,793 c 0,-3.575 0.1815,-5.0375 0.40333,-3.25 0.22182,1.7875 0.22182,4.7125 0,6.5 -0.22183,1.7875 -0.40333,0.325 -0.40333,-3.25 z M 2042.3652,762.5 c 0,-5.5 0.1706,-7.62242 0.3732,-4.71648 0.2026,2.90594 0.2005,7.40594 0,10 -0.2053,2.59406 -0.3711,0.21648 -0.3685,-5.28352 z M 774.29966,740 c 0,-3.025 0.18747,-4.2625 0.41659,-2.75 0.22913,1.5125 0.22913,3.9875 0,5.5 -0.22912,1.5125 -0.41659,0.275 -0.41659,-2.75 z m 1267.00004,-7 c 0,-3.025 0.1874,-4.2625 0.4166,-2.75 0.2291,1.5125 0.2291,3.9875 0,5.5 -0.2292,1.5125 -0.4166,0.275 -0.4166,-2.75 z M 775.25218,721.5 c 0.0111,-2.2 0.21589,-2.98225 0.45508,-1.73834 0.23919,1.24391 0.23011,3.04391 -0.0202,4 -0.25029,0.95609 -0.446,-0.0617 -0.4349,-2.26166 z M 2040.232,718 c 0,-1.925 0.2058,-2.7125 0.4573,-1.75 0.2516,0.9625 0.2516,2.5375 0,3.5 -0.2515,0.9625 -0.4573,0.175 -0.4573,-1.75 z M 776.19495,709.5 c 0.0204,-1.65 0.2445,-2.20394 0.49804,-1.23097 0.25354,0.97297 0.23687,2.32297 -0.0371,3 -0.27393,0.67703 -0.48137,-0.11903 -0.46099,-1.76903 z M 2039.1579,707 c 0,-1.375 0.227,-1.9375 0.5044,-1.25 0.2774,0.6875 0.2774,1.8125 0,2.5 -0.2774,0.6875 -0.5044,0.125 -0.5044,-1.25 z M 777.07895,698.41667 c 0.048,-1.16495 0.28494,-1.4019 0.60416,-0.60417 0.28887,0.72187 0.25335,1.58438 -0.0789,1.91667 -0.33229,0.33229 -0.56864,-0.25834 -0.52522,-1.3125 z M 2038.1579,697 c 0,-1.375 0.227,-1.9375 0.5044,-1.25 0.2774,0.6875 0.2774,1.8125 0,2.5 -0.2774,0.6875 -0.5044,0.125 -0.5044,-1.25 z M 778.07895,690.41667 c 0.048,-1.16495 0.28494,-1.4019 0.60416,-0.60417 0.28887,0.72187 0.25335,1.58438 -0.0789,1.91667 -0.33229,0.33229 -0.56864,-0.25834 -0.52522,-1.3125 z M 2037.1949,688.5 c 0.02,-1.65 0.2445,-2.20394 0.4981,-1.23097 0.2535,0.97297 0.2369,2.32297 -0.037,3 -0.2739,0.67703 -0.4813,-0.11903 -0.461,-1.76903 z M 779.07895,682.41667 c 0.048,-1.16495 0.28494,-1.4019 0.60416,-0.60417 0.28887,0.72187 0.25335,1.58438 -0.0789,1.91667 -0.33229,0.33229 -0.56864,-0.25834 -0.52522,-1.3125 z m 1256.99995,-2 c 0.048,-1.16495 0.285,-1.4019 0.6042,-0.60417 0.2889,0.72187 0.2534,1.58438 -0.079,1.91667 -0.3323,0.33229 -0.5687,-0.25834 -0.5253,-1.3125 z m -1255.99995,-5 c 0.048,-1.16495 0.28494,-1.4019 0.60416,-0.60417 0.28887,0.72187 0.25335,1.58438 -0.0789,1.91667 -0.33229,0.33229 -0.56864,-0.25834 -0.52522,-1.3125 z m 1254.99995,-2 c 0.048,-1.16495 0.285,-1.4019 0.6042,-0.60417 0.2889,0.72187 0.2534,1.58438 -0.079,1.91667 -0.3323,0.33229 -0.5687,-0.25834 -0.5253,-1.3125 z m -1,-6 c 0.048,-1.16495 0.285,-1.4019 0.6042,-0.60417 0.2889,0.72187 0.2534,1.58438 -0.079,1.91667 -0.3323,0.33229 -0.5687,-0.25834 -0.5253,-1.3125 z m -1250.99995,-10 c 0.048,-1.16495 0.28494,-1.4019 0.60416,-0.60417 0.28887,0.72187 0.25335,1.58438 -0.0789,1.91667 -0.33229,0.33229 -0.56864,-0.25834 -0.52522,-1.3125 z m 1245.99995,-17 c 0.048,-1.16495 0.285,-1.4019 0.6042,-0.60417 0.2889,0.72187 0.2534,1.58438 -0.079,1.91667 -0.3323,0.33229 -0.5687,-0.25834 -0.5253,-1.3125 z M 1902.8724,370.25 c -1.2438,-1.58606 -1.2085,-1.62143 0.3776,-0.37756 1.6657,1.30637 2.1955,2.12756 1.3724,2.12756 -0.2076,0 -0.9951,-0.7875 -1.75,-1.75 z m -4,-5 c -1.2438,-1.58606 -1.2085,-1.62143 0.3776,-0.37756 1.6657,1.30637 2.1955,2.12756 1.3724,2.12756 -0.2076,0 -0.9951,-0.7875 -1.75,-1.75 z M 916,365.62244 c 0,-0.20765 0.7875,-0.99515 1.75,-1.75 1.58606,-1.24387 1.62143,-1.2085 0.37756,0.37756 C 916.82119,365.91575 916,366.44548 916,365.62244 Z M 1893.8724,359.25 c -1.2438,-1.58606 -1.2085,-1.62143 0.3776,-0.37756 1.6657,1.30637 2.1955,2.12756 1.3724,2.12756 -0.2076,0 -0.9951,-0.7875 -1.75,-1.75 z M 922,358.62244 c 0,-0.20765 0.7875,-0.99515 1.75,-1.75 1.58606,-1.24387 1.62143,-1.2085 0.37756,0.37756 C 922.82119,358.91575 922,359.44548 922,358.62244 Z m 965.9243,-6.37244 -2.4243,-2.75 2.75,2.42431 c 2.5703,2.26589 3.2086,3.07569 2.4243,3.07569 -0.1791,0 -1.4166,-1.2375 -2.75,-2.75 z M 929,350.62244 c 0,-0.20765 0.7875,-0.99515 1.75,-1.75 1.58606,-1.24387 1.62143,-1.2085 0.37756,0.37756 C 929.82119,350.91575 929,351.44548 929,350.62244 Z m 949.4624,-8.87244 -4.9624,-5.25 5.25,4.96241 c 2.8875,2.72932 5.25,5.09182 5.25,5.25 0,0.74619 -0.9264,-0.084 -5.5376,-4.96241 z M 938.5,340 c 0.99549,-1.1 2.03498,-2 2.30998,-2 0.275,0 -0.31449,0.9 -1.30998,2 -0.99549,1.1 -2.03498,2 -2.30998,2 -0.275,0 0.31449,-0.9 1.30998,-2 z M 1866,328.5 c -2.429,-2.475 -4.1914,-4.5 -3.9164,-4.5 0.275,0 2.4874,2.025 4.9164,4.5 2.429,2.475 4.1914,4.5 3.9164,4.5 -0.275,0 -2.4874,-2.025 -4.9164,-4.5 z M 958.5,319 c 6.03124,-6.05 11.19089,-11 11.46589,-11 0.275,0 -4.43465,4.95 -10.46589,11 -6.03124,6.05 -11.19089,11 -11.46589,11 -0.275,0 4.43465,-4.95 10.46589,-11 z m 881.9529,-16.25 -3.9529,-4.25 4.25,3.95295 c 2.3375,2.17412 4.25,4.08662 4.25,4.25 0,0.75658 -0.8709,-4.9e-4 -4.5471,-3.95295 z M 980,298.5 c 1.29175,-1.375 2.57363,-2.5 2.84863,-2.5 0.275,0 -0.55688,1.125 -1.84863,2.5 -1.29175,1.375 -2.57363,2.5 -2.84863,2.5 -0.275,0 0.55688,-1.125 1.84863,-2.5 z m 849.9462,-5.25 -3.4462,-3.75 3.75,3.44617 c 3.4904,3.20761 4.2098,4.05383 3.4462,4.05383 -0.1671,0 -1.8546,-1.6875 -3.75,-3.75 z M 988.5,291 c 0.99549,-1.1 2.03498,-2 2.30998,-2 0.275,0 -0.31449,0.9 -1.30998,2 -0.99549,1.1 -2.03498,2 -2.30998,2 -0.275,0 0.31449,-0.9 1.30998,-2 z m 832.3724,-5.75 c -1.2438,-1.58606 -1.2085,-1.62143 0.3776,-0.37756 1.6657,1.30637 2.1955,2.12756 1.3724,2.12756 -0.2076,0 -0.9951,-0.7875 -1.75,-1.75 z M 996.5,284 c 0.99549,-1.1 2.03498,-2 2.30998,-2 0.275,0 -0.31449,0.9 -1.30998,2 -0.99549,1.1 -2.03498,2 -2.30998,2 -0.275,0 0.31449,-0.9 1.30998,-2 z m 5.5,-4.37756 c 0,-0.20765 0.7875,-0.99515 1.75,-1.75 1.5861,-1.24387 1.6214,-1.2085 0.3776,0.37756 -1.3064,1.66575 -2.1276,2.19548 -2.1276,1.37244 z m 807.9243,-3.37244 -2.4243,-2.75 2.75,2.42431 c 1.5125,1.33338 2.75,2.57088 2.75,2.75 0,0.78428 -0.8098,0.14598 -3.0757,-2.42431 z m -5.0519,-4 c -1.2438,-1.58606 -1.2085,-1.62143 0.3776,-0.37756 1.6657,1.30637 2.1955,2.12756 1.3724,2.12756 -0.2076,0 -0.9951,-0.7875 -1.75,-1.75 z M 1013,270.62244 c 0,-0.20765 0.7875,-0.99515 1.75,-1.75 1.5861,-1.24387 1.6214,-1.2085 0.3776,0.37756 -1.3064,1.66575 -2.1276,2.19548 -2.1276,1.37244 z M 1782.8724,255.25 c -1.2438,-1.58606 -1.2085,-1.62143 0.3776,-0.37756 0.9625,0.75485 1.75,1.54235 1.75,1.75 0,0.82304 -0.8212,0.29331 -2.1276,-1.37244 z m -77.4313,-47.80517 c -1.864,-1.49339 -1.8517,-1.51185 0.3089,-0.46481 1.2375,0.59969 2.25,1.29951 2.25,1.55516 0,0.76522 -0.5186,0.54424 -2.5589,-1.09035 z m -5.6911,-3.0168 c -3.7384,-2.02814 -3.5109,-2.87286 0.25,-0.92803 1.65,0.85325 3,1.7648 3,2.02568 0,0.6435 -0.1074,0.60721 -3.25,-1.09765 z M 1652,182 c -0.9013,-0.58246 -1.0246,-0.97549 -0.309,-0.98469 0.655,-0.008 1.4691,0.43469 1.809,0.98469 0.7673,1.24153 0.4211,1.24153 -1.5,0 z m -479.2667,-4.12409 c 0.6784,-0.68342 1.4853,-0.99067 1.7932,-0.68278 0.3078,0.30789 -0.2472,0.86705 -1.2334,1.24258 -1.4252,0.54268 -1.54,0.42782 -0.5598,-0.5598 z M 1598.5,163 c -1.2606,-0.54172 -1.4455,-0.85943 -0.5,-0.85943 0.825,0 2.4,0.38674 3.5,0.85943 1.2606,0.54172 1.4455,0.85943 0.5,0.85943 -0.825,0 -2.4,-0.38674 -3.5,-0.85943 z m -368.6875,-4.68311 c 0.7219,-0.28887 1.5844,-0.25335 1.9167,0.0789 0.3323,0.33229 -0.2584,0.56864 -1.3125,0.52522 -1.165,-0.048 -1.4019,-0.28494 -0.6042,-0.60416 z m 352,-1 c 0.7219,-0.28887 1.5844,-0.25335 1.9167,0.0789 0.3323,0.33229 -0.2584,0.56864 -1.3125,0.52522 -1.165,-0.048 -1.4019,-0.28494 -0.6042,-0.60416 z m -15,-4 c 0.7219,-0.28887 1.5844,-0.25335 1.9167,0.0789 0.3323,0.33229 -0.2584,0.56864 -1.3125,0.52522 -1.165,-0.048 -1.4019,-0.28494 -0.6042,-0.60416 z m -306,-3 c 0.7219,-0.28887 1.5844,-0.25335 1.9167,0.0789 0.3323,0.33229 -0.2584,0.56864 -1.3125,0.52522 -1.165,-0.048 -1.4019,-0.28494 -0.6042,-0.60416 z m 5,-1 c 0.7219,-0.28887 1.5844,-0.25335 1.9167,0.0789 0.3323,0.33229 -0.2584,0.56864 -1.3125,0.52522 -1.165,-0.048 -1.4019,-0.28494 -0.6042,-0.60416 z m 284,0 c 0.7219,-0.28887 1.5844,-0.25335 1.9167,0.0789 0.3323,0.33229 -0.2584,0.56864 -1.3125,0.52522 -1.165,-0.048 -1.4019,-0.28494 -0.6042,-0.60416 z m -5,-1 c 0.7219,-0.28887 1.5844,-0.25335 1.9167,0.0789 0.3323,0.33229 -0.2584,0.56864 -1.3125,0.52522 -1.165,-0.048 -1.4019,-0.28494 -0.6042,-0.60416 z m -10,-2 c 0.7219,-0.28887 1.5844,-0.25335 1.9167,0.0789 0.3323,0.33229 -0.2584,0.56864 -1.3125,0.52522 -1.165,-0.048 -1.4019,-0.28494 -0.6042,-0.60416 z m -10,-2 c 0.7219,-0.28887 1.5844,-0.25335 1.9167,0.0789 0.3323,0.33229 -0.2584,0.56864 -1.3125,0.52522 -1.165,-0.048 -1.4019,-0.28494 -0.6042,-0.60416 z m -6,-1 c 0.7219,-0.28887 1.5844,-0.25335 1.9167,0.0789 0.3323,0.33229 -0.2584,0.56864 -1.3125,0.52522 -1.165,-0.048 -1.4019,-0.28494 -0.6042,-0.60416 z m -219,-1 c 0.7219,-0.28887 1.5844,-0.25335 1.9167,0.0789 0.3323,0.33229 -0.2584,0.56864 -1.3125,0.52522 -1.165,-0.048 -1.4019,-0.28494 -0.6042,-0.60416 z m 5.9375,-0.97917 c 0.6875,-0.27741 1.8125,-0.27741 2.5,0 0.6875,0.27741 0.125,0.50439 -1.25,0.50439 -1.375,0 -1.9375,-0.22698 -1.25,-0.50439 z m 7.0625,-1.02083 c 0.7219,-0.28887 1.5844,-0.25335 1.9167,0.0789 0.3323,0.33229 -0.2584,0.56864 -1.3125,0.52522 -1.165,-0.048 -1.4019,-0.28494 -0.6042,-0.60416 z m 187.9375,0.0208 c 0.6875,-0.27741 1.8125,-0.27741 2.5,0 0.6875,0.27741 0.125,0.50439 -1.25,0.50439 -1.375,0 -1.9375,-0.22698 -1.25,-0.50439 z m -180.9375,-1.02083 c 0.7219,-0.28887 1.5844,-0.25335 1.9167,0.0789 0.3323,0.33229 -0.2584,0.56864 -1.3125,0.52522 -1.165,-0.048 -1.4019,-0.28494 -0.6042,-0.60416 z m 173.9375,0.0208 c 0.6875,-0.27741 1.8125,-0.27741 2.5,0 0.6875,0.27741 0.125,0.50439 -1.25,0.50439 -1.375,0 -1.9375,-0.22698 -1.25,-0.50439 z m -165.481,-1.03071 c 0.973,-0.25354 2.323,-0.23687 3,0.0371 0.6771,0.27393 -0.119,0.48137 -1.769,0.46099 -1.65,-0.0204 -2.2039,-0.2445 -1.231,-0.49804 z m 157,0 c 0.973,-0.25354 2.323,-0.23687 3,0.0371 0.6771,0.27393 -0.119,0.48137 -1.769,0.46099 -1.65,-0.0204 -2.2039,-0.2445 -1.231,-0.49804 z m -147.519,-0.96929 c 0.6875,-0.27741 1.8125,-0.27741 2.5,0 0.6875,0.27741 0.125,0.50439 -1.25,0.50439 -1.375,0 -1.9375,-0.22698 -1.25,-0.50439 z m 11.5,-1.02705 c 0.9625,-0.25152 2.5375,-0.25152 3.5,0 0.9625,0.25153 0.175,0.45733 -1.75,0.45733 -1.925,0 -2.7125,-0.2058 -1.75,-0.45733 z m 115,0 c 0.9625,-0.25152 2.5375,-0.25152 3.5,0 0.9625,0.25153 0.175,0.45733 -1.75,0.45733 -1.925,0 -2.7125,-0.2058 -1.75,-0.45733 z m -101.4883,-1.01793 c 1.2439,-0.23919 3.0439,-0.23011 4,0.0202 0.956,0.25029 -0.062,0.446 -2.2617,0.4349 -2.2,-0.0111 -2.9823,-0.21589 -1.7383,-0.45508 z m 88,0 c 1.2439,-0.23919 3.0439,-0.23011 4,0.0202 0.956,0.25029 -0.062,0.446 -2.2617,0.4349 -2.2,-0.0111 -2.9823,-0.21589 -1.7383,-0.45508 z m -67.9938,-1.01747 c 1.7974,-0.22256 4.4974,-0.21797 6,0.0102 1.5027,0.22818 0.032,0.41027 -3.2679,0.40466 -3.3,-0.006 -4.5294,-0.1923 -2.7321,-0.41486 z m 46,0 c 1.7974,-0.22256 4.4974,-0.21797 6,0.0102 1.5027,0.22818 0.032,0.41027 -3.2679,0.40466 -3.3,-0.006 -4.5294,-0.1923 -2.7321,-0.41486 z"
         id="path3" />
      <path
         style="fill:#03704e"
         d="m 1366,1400.974 c -59.1264,-3.7761 -122.2768,-17.5833 -180.5,-39.4645 -47.3166,-17.7824 -101.2308,-46.5853 -142,-75.8616 -6.05,-4.3445 -12.986,-9.305 -15.4133,-11.0235 -14.3308,-10.1456 -41.38554,-33.3694 -61.99246,-53.2143 C 906.19126,1163.7221 861.3461,1099.2003 826.63436,1020.7596 803.53357,968.55698 785.82823,903.04432 778.59335,843 c -4.10253,-34.04805 -5.39576,-92.71925 -2.74422,-124.5 7.01543,-84.08536 29.757,-165.0412 67.13826,-239 29.2964,-57.9629 64.62739,-107.31982 110.51261,-154.38462 50.1668,-51.45644 105.9746,-92.33841 169.3053,-124.02456 47.1798,-23.60538 93.8295,-40.24037 144.5564,-51.548 49.2938,-10.98817 87.1837,-14.94358 142.1383,-14.83812 51.2531,0.0984 83.0523,3.25173 130.5,12.94104 27.6163,5.63953 40.0259,9.0264 71,19.37751 36.8811,12.32517 65.4862,24.55141 95,40.60441 4.675,2.5428 11.425,6.21644 15,8.16363 52.0525,28.35139 106.8421,71.36595 149.2942,117.20871 28.9689,31.28271 44.5314,50.73568 64.4006,80.5 43.2737,64.82478 73.9407,136.30373 91.17,212.5 12.505,55.3029 16.9238,97.91565 15.8138,152.5 -1.0507,51.671 -5.1481,84.9846 -16.7329,136.04819 -6.8076,30.00635 -23.0437,78.42914 -36.699,109.45181 -21.9173,49.7925 -57.4833,107.7843 -88.6209,144.5 -31.3422,36.957 -79.9444,83.7532 -107.1258,103.1451 -3.85,2.7467 -12.175,8.8133 -18.5,13.4815 -12.3381,9.1061 -38.0387,25.3793 -57.4883,36.4006 -74.7189,42.3403 -161.1361,69.7524 -246.0117,78.0365 -18.8261,1.8375 -84.0314,2.7175 -104.5,1.4103 z m 96.5,-136.4166 c 57.8492,-6.1745 117.1172,-24.1292 170.051,-51.5154 52.4243,-27.1226 94.3721,-58.2165 134.449,-99.6603 38.2474,-39.5519 68.1714,-82.115 92.0166,-130.8817 13.6268,-27.86867 27.1338,-63.60021 33.8321,-89.5 3.7961,-14.67802 10.4939,-48.1144 12.6197,-63 11.1473,-78.05532 0.8109,-166.00993 -28.6747,-244 -37.3553,-98.80523 -106.6712,-184.7756 -195.2937,-242.21672 -66.3677,-43.01656 -143.0741,-70.47986 -219,-78.40885 -20.8857,-2.18111 -82.5624,-2.50279 -103,-0.53721 -31.6156,3.04064 -62.4125,9.09509 -96,18.87295 -22.1399,6.44527 -51.2942,17.91261 -74.0885,29.14138 -75.4119,37.14903 -135.1718,87.0821 -186.6301,155.94094 -31.84101,42.60805 -61.00783,101.8092 -75.97389,154.20751 -10.2211,35.78554 -16.79382,73.18048 -19.56802,111.33067 -1.14573,15.75589 -0.80494,53.69989 0.61675,68.66933 7.05985,74.33549 25.99962,137.17001 60.51391,200.7608 60.19055,110.8978 163.17805,197.4413 283.05385,237.8587 38.3482,12.9295 79.9948,21.4178 119.576,24.3716 17.6234,1.3152 74.0257,0.4315 91.5,-1.4337 z m -71.5,-10.1962 c -37.4962,-2.1286 -65.1372,-6.3611 -101.5,-15.5422 -69.1407,-17.4569 -137.7411,-52.8147 -194.7679,-100.3864 -10.96,-9.1429 -47.4052,-45.6202 -56.9615,-57.0117 C 978.02745,1010.2043 941.42738,931.62565 926.48694,842.5 c -5.28137,-31.50547 -5.99791,-41.24651 -5.88466,-80 0.11051,-37.81792 0.81213,-46.52986 6.42669,-79.7993 C 936.95667,623.87345 958.37975,564.73397 987.23461,516.5 1026.1082,451.51873 1073.75,400.8433 1134,360.38928 c 39.9048,-26.79349 74.0043,-43.85393 117,-58.53657 68.8225,-23.50229 141.3316,-30.93753 217,-22.25168 26.0034,2.98489 67.003,12.14908 93.6019,20.92179 24.1124,7.95266 58.9569,23.25123 82.2135,36.09605 73.8091,40.76551 134.1929,98.1639 179.5972,170.71777 19.1699,30.63269 34.5306,63.56157 46.9948,100.74344 8.0322,23.96086 9.6997,30.14431 15.0796,55.91992 7.1477,34.24555 9.255,51.24926 10.3283,83.34026 1.5601,46.64382 -1.7085,80.14988 -12.4049,127.15974 -8.0186,35.24162 -20.0285,68.58575 -37.4585,104 -25.817,52.4548 -55.4526,93.2204 -98.8208,135.9336 -26.9821,26.5747 -47.7168,43.0254 -81.1311,64.3683 -64.965,41.4955 -141.2353,67.4336 -218,74.1375 -12.8364,1.121 -47.1998,1.9782 -57,1.4218 z m 222.6995,-240.0204 c 0.8943,-2.3307 -3.4094,-25.38981 -6.2982,-33.74489 -8.236,-23.82021 -28.0892,-45.91833 -52.0627,-57.94951 -6.6683,-3.34655 -17.6004,-6.35566 -26.1063,-7.18592 -3.7028,-0.36143 -40.4823,-0.73976 -81.7323,-0.84074 -72.2885,-0.17695 -75.2539,-0.25749 -82.0226,-2.22763 -24.3113,-7.0762 -39.7959,-24.81271 -45.8892,-52.56266 l -0.5864,-2.67055 -57.0009,-0.003 -57.0009,-0.003 v 3.34314 c 0,5.64448 4.7712,27.69235 8.3605,38.63402 12.0998,36.88536 32.1086,64.66309 61.6395,85.5725 18.2195,12.90032 37.3356,21.13464 61,26.27604 21.4567,4.6617 25.3373,4.785 154.7785,4.9147 113.4948,0.1137 122.3246,0 122.921,-1.5518 z M 1455.5434,817.28762 c 19.7598,-6.11621 31.0669,-12.71171 44.0497,-25.69451 12.5987,-12.59866 21.2925,-26.97311 26.7198,-44.17853 2.4677,-7.82299 5.3377,-27.55285 4.2613,-29.29447 -0.2908,-0.4706 -74.2265,-0.80264 -164.3015,-0.73787 L 1202.5,717.5 l -0.2591,51.27649 -0.2591,51.27648 123.2591,-0.29262 123.2591,-0.29262 z M 1320.9511,673.35954 c 3.8017,-21.83099 20.2512,-40.37614 43.0489,-48.53332 l 6.5,-2.32574 82,-0.56219 c 80.7019,-0.55329 82.1266,-0.59725 90,-2.7773 15.6496,-4.3332 27.8011,-11.36492 39.8355,-23.05179 13.0043,-12.62864 21.4749,-25.36158 26.0176,-39.1092 2.6241,-7.94138 6.0235,-28.83471 5.4737,-33.64227 L 1613.5,520.5 l -118,-0.28451 c -76.5186,-0.18449 -122.1582,0.0842 -129.8285,0.76427 -33.5996,2.97914 -63.2682,13.17783 -90.7168,31.18425 -12.5683,8.24492 -31.7398,27.4136 -40.0509,40.04501 -11.2295,17.06699 -18.8366,34.26887 -23.8421,53.91444 -2.9023,11.39062 -5.6052,31.1882 -4.5018,32.97352 0.3215,0.52007 24.45,0.90302 56.8965,0.90302 h 56.3383 z"
         id="path2" />
    </g>
  </g>
</svg>
